<mxfile host="app.diagrams.net" modified="2020-08-03T02:18:20.371Z" agent="5.0 (Windows NT 10.0; Win64; x64) AppleWebKit/537.36 (KHTML, like Gecko) Chrome/83.0.4103.116 Safari/537.36" etag="kc9B325pMo7B79yha_yc" version="13.5.8" type="github">
  <diagram id="zKMk2v3z6EPbXtCBpRcJ" name="第 1 页">
    <mxGraphModel dx="981" dy="579" grid="1" gridSize="10" guides="1" tooltips="1" connect="1" arrows="1" fold="1" page="1" pageScale="1" pageWidth="827" pageHeight="1169" math="0" shadow="0">
      <root>
        <mxCell id="0" />
        <mxCell id="1" parent="0" />
        <mxCell id="a5MRFx5d52tZQD-VVY5q-5" value="" style="edgeStyle=orthogonalEdgeStyle;rounded=0;orthogonalLoop=1;jettySize=auto;html=1;" edge="1" parent="1" source="a5MRFx5d52tZQD-VVY5q-1" target="a5MRFx5d52tZQD-VVY5q-4">
          <mxGeometry relative="1" as="geometry" />
        </mxCell>
        <mxCell id="a5MRFx5d52tZQD-VVY5q-1" value="AnnotationConfigApplicationContext" style="rounded=0;whiteSpace=wrap;html=1;" vertex="1" parent="1">
          <mxGeometry x="20" y="200" width="280" height="30" as="geometry" />
        </mxCell>
        <mxCell id="a5MRFx5d52tZQD-VVY5q-7" value="" style="edgeStyle=orthogonalEdgeStyle;rounded=0;orthogonalLoop=1;jettySize=auto;html=1;" edge="1" parent="1" source="a5MRFx5d52tZQD-VVY5q-4" target="a5MRFx5d52tZQD-VVY5q-6">
          <mxGeometry relative="1" as="geometry" />
        </mxCell>
        <mxCell id="a5MRFx5d52tZQD-VVY5q-4" value="this()" style="rounded=0;whiteSpace=wrap;html=1;" vertex="1" parent="1">
          <mxGeometry x="20" y="260" width="280" height="30" as="geometry" />
        </mxCell>
        <mxCell id="a5MRFx5d52tZQD-VVY5q-9" value="" style="edgeStyle=orthogonalEdgeStyle;rounded=0;orthogonalLoop=1;jettySize=auto;html=1;entryX=0;entryY=0.5;entryDx=0;entryDy=0;" edge="1" parent="1" source="a5MRFx5d52tZQD-VVY5q-6" target="a5MRFx5d52tZQD-VVY5q-8">
          <mxGeometry relative="1" as="geometry" />
        </mxCell>
        <mxCell id="a5MRFx5d52tZQD-VVY5q-6" value="super()" style="rounded=0;whiteSpace=wrap;html=1;" vertex="1" parent="1">
          <mxGeometry x="20" y="320" width="280" height="30" as="geometry" />
        </mxCell>
        <mxCell id="a5MRFx5d52tZQD-VVY5q-11" value="" style="edgeStyle=orthogonalEdgeStyle;rounded=0;orthogonalLoop=1;jettySize=auto;html=1;" edge="1" parent="1" source="a5MRFx5d52tZQD-VVY5q-8" target="a5MRFx5d52tZQD-VVY5q-10">
          <mxGeometry relative="1" as="geometry" />
        </mxCell>
        <mxCell id="a5MRFx5d52tZQD-VVY5q-8" value="super()" style="rounded=0;whiteSpace=wrap;html=1;" vertex="1" parent="1">
          <mxGeometry x="370" y="200" width="280" height="30" as="geometry" />
        </mxCell>
        <mxCell id="a5MRFx5d52tZQD-VVY5q-10" value="super()" style="rounded=0;whiteSpace=wrap;html=1;" vertex="1" parent="1">
          <mxGeometry x="730" y="200" width="280" height="30" as="geometry" />
        </mxCell>
      </root>
    </mxGraphModel>
  </diagram>
</mxfile>
